<?xml version="1.0" standalone="no"?>
<!DOCTYPE svg PUBLIC "-//W3C//DTD SVG 20010904//EN"
 "http://www.w3.org/TR/2001/REC-SVG-20010904/DTD/svg10.dtd">
<svg version="1.0" xmlns="http://www.w3.org/2000/svg"
 width="228.000000pt" height="221.000000pt" viewBox="0 0 228.000000 221.000000"
 preserveAspectRatio="xMidYMid meet">

<g transform="translate(0.000000,221.000000) scale(0.100000,-0.100000)"
fill="#000000" stroke="none">
<path d="M990 2163 c-138 -46 -218 -94 -312 -190 -156 -158 -240 -346 -261
-580 -24 -276 26 -502 157 -706 52 -80 200 -217 276 -253 114 -56 151 -64 278
-64 103 0 124 4 177 26 33 14 65 26 72 28 51 10 198 135 269 228 39 51 104
166 110 193 1 6 12 35 24 65 28 70 60 263 60 360 0 97 -32 290 -60 360 -12 30
-23 60 -24 65 -1 6 -17 38 -34 73 -39 75 -103 161 -169 223 -48 47 -163 129
-179 129 -5 0 -36 11 -69 25 -53 22 -74 24 -180 24 -66 0 -127 -3 -135 -6z
m244 -14 c164 -31 322 -148 439 -325 26 -40 47 -76 47 -80 0 -5 9 -26 20 -46
11 -20 34 -90 51 -155 30 -109 32 -130 32 -273 0 -143 -2 -164 -32 -273 -17
-65 -40 -135 -51 -155 -11 -20 -20 -41 -20 -46 0 -4 -21 -40 -47 -80 -89 -135
-204 -236 -329 -292 -30 -13 -54 -22 -54 -20 0 2 -24 -2 -52 -10 -65 -17 -150
-18 -220 -2 -29 6 -56 11 -61 10 -4 -1 -44 17 -90 39 -67 34 -100 60 -182 143
-55 56 -110 121 -123 145 -12 24 -28 55 -36 70 -56 104 -106 326 -106 470 0
149 49 366 106 472 8 15 24 46 36 70 13 24 68 89 123 145 78 79 116 110 175
139 117 59 246 78 374 54z"/>
<path d="M1081 2070 l1 -45 10 34 c6 23 6 37 -1 44 -8 8 -11 -2 -10 -33z"/>
<path d="M1120 2091 c0 -11 -5 -21 -10 -23 -7 -2 -5 -11 4 -23 14 -19 15 -17
16 23 0 23 -2 42 -5 42 -3 0 -5 -9 -5 -19z"/>
<path d="M1146 2079 c-8 -41 -8 -51 2 -45 8 5 16 76 9 76 -3 0 -7 -14 -11 -31z"/>
<path d="M1011 2073 c-1 -34 31 -64 44 -43 4 6 1 9 -5 8 -7 -2 -18 13 -25 32
l-13 35 -1 -32z"/>
<path d="M1051 2084 c0 -11 3 -14 6 -6 3 7 2 16 -1 19 -3 4 -6 -2 -5 -13z"/>
<path d="M1176 2091 c-3 -5 2 -8 12 -7 11 0 18 -7 20 -21 4 -28 -24 -32 -31
-5 -4 13 -5 11 -6 -5 -1 -17 5 -23 18 -23 26 0 34 15 27 46 -6 24 -30 33 -40
15z"/>
<path d="M1248 2062 c-22 -37 -22 -38 2 -38 11 0 20 4 20 8 0 4 -6 8 -12 8
-10 0 -10 3 0 9 8 5 12 16 10 25 -2 14 -7 11 -20 -12z"/>
<path d="M932 2068 c-28 -28 3 -83 33 -58 8 7 15 20 15 29 0 17 -18 41 -30 41
-3 0 -11 -5 -18 -12z m34 -44 c-3 -8 -10 -14 -15 -14 -15 0 -22 32 -9 47 10
12 13 12 21 -2 5 -9 6 -23 3 -31z"/>
<path d="M881 2046 c-19 -11 -21 -14 -7 -19 9 -4 16 -16 16 -27 0 -11 4 -20 9
-20 6 0 6 12 1 29 -5 19 -4 33 3 40 14 14 8 13 -22 -3z"/>
<path d="M1344 2045 c11 -8 22 -12 25 -9 6 6 -19 24 -34 24 -5 -1 -1 -7 9 -15z"/>
<path d="M1320 2031 c0 -5 -2 -16 -5 -23 -4 -9 4 -19 20 -26 14 -6 25 -8 25
-3 0 5 -9 11 -19 14 -14 3 -18 11 -14 26 3 12 3 21 -1 21 -3 0 -6 -4 -6 -9z"/>
<path d="M1383 2011 c3 -11 1 -19 -4 -15 -18 11 -8 -18 15 -42 26 -28 30 -26
41 24 7 36 -1 41 -22 15 -13 -17 -13 -16 -11 6 2 14 -3 26 -11 29 -10 3 -12
-1 -8 -17z m37 -45 c0 -3 -4 -8 -10 -11 -5 -3 -10 -1 -10 4 0 6 5 11 10 11 6
0 10 -2 10 -4z"/>
<path d="M814 2005 c-9 -22 4 -34 28 -27 18 4 20 2 14 -14 -6 -15 -4 -16 5 -7
16 16 3 47 -16 39 -8 -3 -15 -1 -15 3 0 5 6 12 13 14 7 3 5 6 -6 6 -10 1 -20
-6 -23 -14z"/>
<path d="M790 1990 c0 -3 4 -20 9 -38 8 -25 7 -32 -5 -32 -8 0 -14 10 -14 25
0 29 -7 31 -31 9 -14 -13 -15 -21 -7 -45 11 -32 33 -41 23 -9 -6 18 -3 20 17
15 37 -9 49 14 27 50 -11 17 -19 28 -19 25z m-24 -55 c-3 -9 -11 -13 -16 -10
-8 5 -7 11 1 21 14 18 24 11 15 -11z"/>
<path d="M1008 1961 c-71 -23 -134 -60 -172 -100 -43 -45 -21 -38 38 12 75 64
153 92 251 92 108 -1 191 -40 284 -134 81 -82 132 -167 173 -291 30 -92 31
-100 31 -275 0 -176 0 -182 -32 -275 -60 -179 -169 -320 -297 -385 -51 -26
-72 -30 -156 -33 -91 -4 -100 -2 -160 27 -155 75 -261 217 -324 436 -25 87
-29 117 -29 230 0 112 4 144 29 230 32 114 75 209 123 269 37 46 44 69 13 41
-39 -35 -132 -218 -145 -283 -32 -164 -37 -214 -31 -302 3 -52 10 -111 15
-130 5 -19 12 -49 14 -65 7 -47 56 -164 95 -225 19 -30 65 -85 103 -122 160
-155 371 -166 545 -28 88 70 188 220 214 320 5 19 17 64 26 100 12 46 18 104
18 195 0 110 -4 146 -27 233 -45 173 -129 309 -243 393 -109 80 -245 107 -356
70z"/>
<path d="M1464 1946 c-9 -15 -14 -29 -11 -32 3 -3 13 6 23 20 9 15 14 29 11
32 -3 3 -13 -6 -23 -20z"/>
<path d="M1493 1926 c-13 -6 -23 -16 -23 -23 0 -15 35 -12 52 5 18 18 -3 30
-29 18z"/>
<path d="M700 1910 c-8 -5 -12 -12 -9 -15 4 -3 12 1 19 10 14 17 11 19 -10 5z"/>
<path d="M1520 1879 c-15 -28 -6 -49 23 -49 20 0 23 -4 19 -35 -4 -30 -2 -34
13 -29 13 5 14 8 3 15 -10 6 -10 13 -2 26 16 25 32 27 37 3 4 -18 5 -18 3 2
-1 17 -7 23 -24 22 -19 -1 -22 3 -18 20 11 41 -34 63 -54 25z m40 -14 c0 -15
-6 -25 -14 -25 -22 0 -30 19 -16 35 18 22 30 18 30 -10z"/>
<path d="M690 1865 c0 -8 4 -15 10 -15 5 0 7 7 4 15 -4 8 -8 15 -10 15 -2 0
-4 -7 -4 -15z"/>
<path d="M725 1860 c-3 -5 -1 -10 4 -10 6 0 11 5 11 10 0 6 -2 10 -4 10 -3 0
-8 -4 -11 -10z"/>
<path d="M630 1820 c-8 -15 -7 -26 6 -45 18 -27 28 -25 46 8 10 20 10 21 -6 8
-22 -18 -33 -7 -15 16 11 15 11 16 -1 6 -21 -19 -32 -15 -20 7 6 11 8 20 6 20
-3 0 -10 -9 -16 -20z"/>
<path d="M588 1754 c-11 -23 -9 -28 12 -44 18 -14 27 -15 32 -7 12 18 9 52 -4
65 -18 18 -27 15 -40 -14z m40 -22 c2 -12 -1 -22 -6 -22 -15 0 -34 28 -27 40
10 17 30 6 33 -18z"/>
<path d="M1611 1756 c-19 -11 -21 -14 -7 -19 9 -4 16 -16 16 -29 0 -19 2 -20
14 -8 18 18 25 62 11 66 -5 2 -21 -3 -34 -10z m29 -16 c0 -5 -4 -10 -10 -10
-5 0 -10 5 -10 10 0 6 5 10 10 10 6 0 10 -4 10 -10z"/>
<path d="M851 1717 c-1 -10 18 -50 40 -88 l41 -69 163 0 c161 0 164 0 170 23
4 12 18 45 31 74 26 56 29 73 14 73 -5 0 -10 -4 -10 -10 0 -5 -11 -10 -25 -10
-14 0 -25 -4 -25 -9 0 -5 9 -7 20 -4 21 5 25 -3 14 -31 -5 -13 -24 -16 -100
-16 l-94 0 0 26 c0 23 3 26 25 22 14 -3 25 -1 25 3 0 5 -11 9 -24 9 -13 0 -27
6 -30 13 -5 10 -7 10 -12 0 -3 -7 -17 -13 -30 -13 -14 0 -23 -4 -20 -9 3 -5
15 -7 26 -4 16 4 20 0 20 -21 0 -26 0 -26 -85 -26 -73 0 -86 3 -95 19 -15 28
-13 34 10 28 11 -3 20 -1 20 4 0 5 -13 9 -29 9 -16 0 -32 6 -34 13 -3 7 -6 4
-6 -6z m409 -87 c0 -5 -5 -21 -12 -35 l-11 -25 -143 0 -143 0 -16 30 c-8 16
-15 31 -15 35 0 3 77 5 170 5 101 0 170 -4 170 -10z"/>
<path d="M1644 1688 c-10 -13 -12 -17 -4 -10 22 19 35 14 16 -7 -17 -19 -17
-20 3 -31 13 -7 21 -7 21 -1 0 6 7 8 15 5 11 -5 13 -2 9 9 -3 9 -12 13 -21 10
-13 -5 -13 -2 -5 14 11 19 7 33 -8 33 -4 0 -15 -10 -26 -22z"/>
<path d="M540 1656 c0 -17 28 -41 37 -32 4 4 1 12 -7 17 -12 8 -10 9 7 4 12
-3 24 -2 27 3 3 6 -4 12 -17 16 -35 9 -47 7 -47 -8z"/>
<path d="M1688 1614 c-19 -10 -25 -19 -21 -34 7 -28 19 -33 43 -18 21 13 25
34 12 55 -5 8 -14 8 -34 -3z m32 -20 c0 -8 -4 -12 -10 -9 -5 3 -10 10 -10 16
0 5 5 9 10 9 6 0 10 -7 10 -16z m-20 -14 c0 -5 -4 -10 -10 -10 -5 0 -10 5 -10
10 0 6 5 10 10 10 6 0 10 -4 10 -10z"/>
<path d="M520 1601 c0 -5 9 -13 21 -16 12 -4 18 -12 15 -21 -3 -8 -1 -14 4
-14 18 0 10 39 -9 50 -24 12 -31 13 -31 1z"/>
<path d="M496 1528 c-9 -34 -8 -35 21 -42 27 -7 43 5 43 33 0 11 -3 11 -13 -3
-16 -22 -47 -12 -40 15 3 10 3 19 0 19 -2 0 -7 -10 -11 -22z"/>
<path d="M1705 1534 c-19 -16 -19 -16 5 -9 31 9 50 25 30 25 -8 0 -24 -8 -35
-16z"/>
<path d="M521 1524 c0 -11 3 -14 6 -6 3 7 2 16 -1 19 -3 4 -6 -2 -5 -13z"/>
<path d="M1091 1492 l-1 -44 -80 4 c-44 2 -80 0 -80 -4 0 -5 36 -8 80 -8 l80
0 0 -118 0 -119 -39 -11 c-21 -7 -46 -12 -55 -12 -9 0 -44 -28 -79 -62 -110
-109 -135 -229 -73 -359 88 -185 326 -229 473 -87 80 77 111 210 74 321 -19
55 -32 75 -84 124 -56 52 -70 60 -132 73 l-70 16 -3 117 -3 117 83 2 83 2 -80
5 -80 6 -6 40 -6 40 -2 -43z m-1 -432 l0 -130 -130 0 c-124 0 -130 1 -130 20
0 51 74 154 141 196 31 19 84 40 112 43 4 1 7 -57 7 -129z m106 113 c84 -28
194 -156 194 -224 0 -18 -10 -19 -145 -19 l-145 0 0 123 c0 68 3 127 7 130 10
11 36 8 89 -10z m197 -305 c-5 -114 -97 -226 -208 -254 -22 -5 -25 -3 -25 23
0 16 7 39 16 51 9 13 14 32 11 42 -3 12 9 33 34 61 22 24 39 53 39 65 0 19 -7
21 -87 27 -48 4 -89 5 -91 2 -2 -2 1 -20 8 -39 11 -34 6 -76 -8 -76 -4 0 -15
18 -24 40 -13 31 -22 40 -41 40 -30 0 -45 -30 -22 -42 8 -5 15 -20 15 -33 0
-16 7 -26 23 -30 49 -14 67 -29 73 -62 4 -19 15 -43 26 -52 18 -18 18 -18 -21
-25 -61 -9 -129 18 -190 76 -62 59 -91 120 -91 189 l0 49 282 -2 283 -3 -2
-47z"/>
<path d="M1728 1503 c13 -2 22 -12 22 -22 0 -25 -11 -33 -27 -20 -10 9 -13 8
-13 -5 0 -12 7 -16 23 -14 17 2 22 10 22 33 0 25 -4 30 -25 32 -22 1 -22 1 -2
-4z"/>
<path d="M479 1444 c-11 -31 -12 -29 25 -38 26 -6 28 -5 17 8 -7 9 -17 13 -22
10 -5 -3 -9 4 -9 15 0 10 6 22 13 24 9 4 9 6 -1 6 -7 1 -17 -11 -23 -25z"/>
<path d="M1730 1420 c-18 -12 -2 -12 25 0 13 6 15 9 5 9 -8 0 -22 -4 -30 -9z"/>
<path d="M477 1383 c-4 -3 -7 -19 -7 -35 0 -23 4 -28 24 -28 26 0 40 23 31 51
-8 23 -25 25 -25 3 0 -8 5 -12 11 -8 7 4 10 -1 7 -12 -5 -30 -33 -23 -33 9 1
30 1 30 -8 20z"/>
<path d="M1725 1370 c3 -5 17 -10 31 -10 14 0 22 4 19 10 -3 6 -17 10 -31 10
-14 0 -22 -4 -19 -10z"/>
<path d="M1721 1315 c1 -24 3 -25 6 -7 2 12 8 22 13 22 5 0 11 -10 13 -22 4
-22 4 -22 7 2 l2 25 8 -25 c8 -25 8 -24 9 5 1 27 -2 30 -29 30 -27 0 -30 -3
-29 -30z"/>
<path d="M483 1293 c9 -2 23 -2 30 0 6 3 -1 5 -18 5 -16 0 -22 -2 -12 -5z"/>
<path d="M523 1075 c-7 -8 -13 -17 -13 -20 0 -8 27 -35 35 -35 8 0 35 27 35
35 0 9 -27 35 -37 35 -4 -1 -14 -7 -20 -15z"/>
<path d="M1678 1071 c-16 -16 -16 -18 4 -36 15 -12 23 -14 26 -7 2 7 10 12 18
12 8 0 14 7 14 15 0 8 -7 15 -15 15 -8 0 -15 5 -15 10 0 15 -13 11 -32 -9z"/>
<path d="M599 814 c-15 -16 -18 -23 -7 -19 9 4 19 2 23 -4 9 -15 35 -14 35 2
0 6 -7 20 -14 29 -12 16 -15 16 -37 -8z m41 -14 c0 -5 -4 -10 -9 -10 -6 0 -13
5 -16 10 -3 6 1 10 9 10 9 0 16 -4 16 -10z"/>
<path d="M1613 825 c-3 -9 -1 -21 6 -28 8 -8 11 -7 11 3 0 11 3 11 12 2 7 -7
16 -12 20 -12 16 0 7 18 -17 34 -23 15 -26 15 -32 1z"/>
<path d="M1599 766 c27 -29 41 -36 20 -10 -12 15 -11 16 10 9 17 -5 22 -4 19
6 -2 7 -20 15 -39 17 l-34 4 24 -26z"/>
<path d="M660 751 c0 -12 -4 -19 -10 -16 -6 4 -8 11 -5 16 8 11 -6 12 -23 0
-11 -7 -11 -9 2 -14 9 -4 20 -17 25 -29 8 -21 9 -20 16 15 4 21 5 41 1 44 -3
4 -6 -4 -6 -16z"/>
<path d="M1583 737 c25 -38 11 -54 -21 -25 -21 18 -23 19 -12 3 22 -30 33 -35
47 -23 19 15 16 32 -9 54 l-22 19 17 -28z"/>
<path d="M675 698 c-16 -28 -16 -31 -2 -19 15 12 17 10 17 -20 0 -25 3 -30 9
-19 6 8 7 18 5 22 -3 4 2 8 10 8 19 0 20 19 2 43 -18 23 -19 22 -41 -15z m42
-14 c-9 -9 -28 6 -21 18 4 6 10 6 17 -1 6 -6 8 -13 4 -17z"/>
<path d="M1504 658 c5 -31 5 -32 -9 -14 -9 13 -19 16 -24 10 -6 -5 0 -21 16
-39 14 -16 22 -24 19 -17 -5 7 -1 12 9 12 12 0 15 5 9 22 -6 21 -5 22 11 8 17
-14 17 -14 6 8 -7 12 -16 20 -21 17 -6 -3 -7 1 -4 9 4 9 1 16 -6 16 -9 0 -11
-10 -6 -32z"/>
<path d="M729 640 c-21 -16 -21 -19 -6 -20 10 0 22 -10 27 -22 8 -21 9 -21 10
-3 0 11 3 30 6 43 8 27 -6 28 -37 2z m23 -12 c-7 -7 -12 -8 -12 -2 0 14 12 26
19 19 2 -3 -1 -11 -7 -17z"/>
<path d="M1430 595 c0 -26 7 -29 35 -19 14 6 14 8 -1 25 -23 26 -34 24 -34 -6z
m30 -5 c0 -5 -4 -10 -10 -10 -5 0 -10 5 -10 10 0 6 5 10 10 10 6 0 10 -4 10
-10z"/>
<path d="M807 603 c-12 -12 -7 -46 9 -65 16 -17 18 -17 30 0 7 9 13 24 13 32
0 8 -4 5 -9 -7 -11 -27 -40 -21 -40 8 0 13 7 19 21 19 11 0 17 5 14 10 -7 11
-28 13 -38 3z"/>
<path d="M1390 597 c0 -3 5 -18 12 -32 10 -22 9 -28 -3 -36 -11 -7 -11 -9 4
-9 21 0 23 37 2 64 -8 11 -15 17 -15 13z"/>
<path d="M864 543 c-5 -19 -2 -30 11 -40 23 -16 32 -8 39 32 l6 30 -12 -27
c-12 -29 -45 -41 -34 -13 3 8 9 22 12 30 3 8 1 15 -5 15 -6 0 -14 -12 -17 -27z"/>
<path d="M1331 561 c-11 -7 -11 -15 -1 -45 10 -32 14 -35 28 -24 28 20 28 21
5 16 -28 -7 -41 31 -16 50 19 14 6 17 -16 3z"/>
<path d="M931 518 c-11 -31 -3 -47 22 -48 15 0 20 31 7 43 -10 10 -12 8 -7 -5
3 -10 1 -20 -5 -24 -8 -5 -9 4 -5 29 7 45 3 47 -12 5z"/>
<path d="M1274 535 c-7 -18 3 -35 22 -35 8 0 14 -5 14 -11 0 -6 -9 -9 -20 -6
-11 3 -20 1 -20 -5 0 -14 43 -5 48 10 2 7 -5 16 -17 19 -26 7 -27 20 -3 25 16
3 16 4 -1 11 -11 4 -20 2 -23 -8z"/>
<path d="M1010 485 c0 -30 3 -35 23 -34 16 1 18 2 5 6 -21 5 -24 20 -5 25 9 2
8 8 -5 21 -17 16 -18 15 -18 -18z"/>
<path d="M1127 513 c-4 -3 -7 -21 -7 -40 0 -29 3 -33 25 -33 14 0 25 5 25 10
0 6 -7 10 -15 10 -18 0 -20 20 -2 20 6 0 3 6 -8 12 -19 11 -19 11 0 19 15 6
16 8 4 8 -9 1 -19 -2 -22 -6z"/>
<path d="M1185 510 c-8 -14 3 -30 21 -30 20 0 18 -18 -3 -23 -16 -4 -16 -5 -1
-6 28 -2 33 21 9 40 -19 16 -20 18 -4 22 16 4 16 5 1 6 -9 0 -20 -3 -23 -9z"/>
<path d="M1071 478 c-1 -32 2 -38 19 -38 11 0 20 5 20 10 0 6 -6 10 -14 10 -8
0 -17 12 -19 28 -3 22 -4 20 -6 -10z"/>
<path d="M860 300 c0 -22 5 -40 10 -40 6 0 10 15 10 34 0 28 4 35 23 39 16 3
13 5 -10 6 -32 1 -33 0 -33 -39z"/>
<path d="M947 333 c-13 -13 -7 -32 13 -38 11 -3 20 -13 20 -21 0 -9 5 -12 12
-8 8 5 3 14 -15 28 -30 24 -34 36 -12 36 8 0 15 -5 15 -11 0 -5 5 -7 10 -4 6
4 8 11 5 16 -7 10 -38 12 -48 2z"/>
<path d="M1018 333 c6 -2 12 -20 12 -39 0 -19 5 -34 10 -34 6 0 10 15 10 34 0
19 6 37 13 39 6 3 -4 5 -23 5 -19 0 -29 -2 -22 -5z"/>
<path d="M1129 335 c-8 -8 3 -75 12 -75 5 0 9 18 9 40 0 36 -8 49 -21 35z"/>
<path d="M1184 326 c-7 -19 3 -36 21 -36 7 0 16 -8 18 -17 3 -10 5 0 4 22 -2
29 -7 41 -20 43 -9 2 -20 -3 -23 -12z m36 -11 c0 -8 -4 -15 -10 -15 -5 0 -10
7 -10 15 0 8 5 15 10 15 6 0 10 -7 10 -15z"/>
<path d="M1257 334 c-11 -12 -8 -74 4 -74 7 0 10 14 7 35 -3 25 0 35 10 35 10
0 13 -10 10 -35 -2 -19 0 -35 5 -35 16 0 3 75 -13 78 -9 1 -19 0 -23 -4z"/>
<path d="M1320 314 c0 -14 4 -23 10 -19 5 3 7 12 4 20 -4 8 3 15 18 18 21 4
20 4 -4 6 -24 1 -28 -3 -28 -25z"/>
<path d="M1350 280 c0 -19 3 -21 12 -12 9 9 9 15 0 24 -9 9 -12 7 -12 -12z"/>
</g>
</svg>
